<svg xmlns="http://www.w3.org/2000/svg" height="16" width="16">
  <path d="M8 0C3.576 0 0 3.576 0 8c0 4.424 3.576 8 8 8 4.424 0 8-3.576 8-8 0-4.424-3.576-8-8-8zm0 1.6v12.8c-3.528 0-6.4-2.872-6.4-6.4 0-3.528 2.872-6.4 6.4-6.4zm1.6.21093c.52542.13615 1.02788.3316 1.49218.58907H9.6zM9.6 4h3.3875c.2021.2515.38404.51956.54687.8H9.6zm0 2.4h4.58907c.06766.26116.12196.52715.15625.8H9.6zm0 2.4h4.74532c-.0343.27285-.0886.53884-.15625.8H9.6zm0 2.4h3.93437c-.16284.28044-.34478.5485-.54688.8H9.6zm0 2.4h1.49218c-.4643.25746-.96676.45292-1.49218.58907z" fill="191919" fill-opacity=".3"/>
</svg>
